PathFileType	4	(X/Y/Z)	s05c0303.trc
DataRate	CameraRate	NumFrames	NumMarkers	Units	OrigDataRate	OrigDataStartFrame	OrigNumFrames
200	200	4	48	mm	200	1000	2000
Frame#	Time	racr			lacr			c7			jug			rlel			rdr			llel			ldr			s2			lic			ric			lasi			rasi			rpsi			lpsi			rgt			lgt			rth1			rth2			rth3			rth4			rlfc			rsh1			rsh2			rsh3			rsh4			rlmal			rcal			rtoe			rmt5			rmt1			lth1			lth2			lth4			lth3			llfc			lmfc			lsh1			lsh2			lsh3			lsh4			llmal			lcal			ltoe			lmt5			SBIKE			LBIKE			RBIKE			
		X1	Y1	Z1	X2	Y2	Z2	X3	Y3	Z3	X4	Y4	Z4	X5	Y5	Z5	X6	Y6	Z6	X7	Y7	Z7	X8	Y8	Z8	X9	Y9	Z9	X10	Y10	Z10	X11	Y11	Z11	X12	Y12	Z12	X13	Y13	Z13	X14	Y14	Z14	X15	Y15	Z15	X16	Y16	Z16	X17	Y17	Z17	X18	Y18	Z18	X19	Y19	Z19	X20	Y20	Z20	X21	Y21	Z21	X22	Y22	Z22	X23	Y23	Z23	X24	Y24	Z24	X25	Y25	Z25	X26	Y26	Z26	X27	Y27	Z27	X28	Y28	Z28	X29	Y29	Z29	X30	Y30	Z30	X31	Y31	Z31	X32	Y32	Z32	X33	Y33	Z33	X34	Y34	Z34	X35	Y35	Z35	X36	Y36	Z36	X37	Y37	Z37	X38	Y38	Z38	X39	Y39	Z39	X40	Y40	Z40	X41	Y41	Z41	X42	Y42	Z42	X43	Y43	Z43	X44	Y44	Z44	X45	Y45	Z45	X46	Y46	Z46	X47	Y47	Z47	X48	Y48	Z48	
1000	5.0000	774.952102	1234.459350	-97.418691	823.871304	1246.493450	-385.212396	804.591543	1324.549484	-247.152379	726.143689	1177.798152	-254.881041	544.907488	1091.277973	0.816696	684.233385	936.172183	-84.950182	603.270592	1132.815101	-574.127813	691.701578	916.694271	-491.326726	222.247168	1278.783901	-380.484631	394.616940	1228.595912	-473.690003	321.028128	1276.444692	-203.962307	406.832561	1167.000125	-423.224484	353.527961	1205.049048	-215.562525	255.507906	1321.996209	-336.423517	284.342505	1309.347292	-416.133460	235.291660	1167.971641	-183.064606	318.749913	1144.235251	-513.049722	295.885968	1060.402250	-143.724405	354.685536	997.259549	-120.211955	374.629100	911.737750	-114.688173	387.436763	1014.125829	-121.655122	450.072156	781.076345	-108.610987	374.321858	697.747905	-93.408250	362.916209	609.329022	-102.453612	312.187149	541.207438	-114.853348	395.860545	598.689219	-118.710738	268.794284	412.048830	-126.187966	200.600144	391.799204	-176.389526	483.428076	311.067196	-152.497535	376.088535	307.140400	-92.972917	0.000000	0.000000	-0.000000	375.178839	1013.371326	-491.990310	422.846264	948.861157	-463.584866	449.034341	963.071564	-442.108778	434.443714	859.496657	-453.448997	451.264689	718.305236	-407.638188	402.853765	720.755612	-307.725046	344.551687	652.269799	-453.816494	288.142995	586.175288	-450.086665	205.827352	554.801325	-464.259022	301.387324	564.738942	-420.195641	113.725656	479.026378	-471.672901	52.533431	519.943270	-437.797016	121.504767	237.856178	-383.093799	68.481223	318.766666	-465.562149	-167.540649	898.848715	-272.272618	-53.045799	79.240778	-474.399683	-53.096441	79.397969	-76.730724	
1001	5.0050	776.243233	1233.974867	-98.321151	823.702993	1248.480535	-386.821168	804.751109	1325.071412	-248.089048	727.081922	1178.101807	-256.407799	546.069629	1091.713390	1.768709	684.356598	936.298600	-85.076774	602.063290	1133.064161	-573.673068	691.802640	916.363661	-490.279357	221.945373	1277.404999	-378.480705	393.443438	1228.993025	-472.784958	321.849620	1273.454207	-202.145864	406.068943	1166.902726	-422.997548	354.435350	1202.153748	-214.661863	255.246656	1319.457026	-330.157351	283.019651	1308.499181	-413.449551	235.756669	1164.304243	-182.174022	318.351958	1144.117209	-512.499715	295.138031	1055.226202	-144.217325	352.541163	990.499531	-121.828285	370.793066	904.381762	-117.784449	385.817798	1006.786823	-123.075600	444.725824	773.434331	-112.661112	369.645171	689.152774	-95.709471	359.510127	600.871520	-104.062961	309.428933	531.793485	-115.512363	392.258223	590.467914	-120.919882	267.780505	401.692752	-125.875983	199.520500	381.364410	-175.783834	482.298761	299.158164	-153.143635	375.038037	296.401371	-92.969270	0.000000	0.000000	-0.000000	376.753807	1012.782916	-492.768759	425.482924	949.340483	-463.917429	451.067925	964.160242	-442.570936	438.883163	860.206228	-453.701361	457.720039	720.370174	-407.397846	409.723435	722.430987	-307.247047	350.132424	656.836488	-453.882133	291.993573	592.332954	-450.345996	208.802723	563.031405	-464.472024	304.961272	570.190332	-420.787023	115.311450	489.188459	-472.176096	54.296015	530.518401	-438.249131	122.730897	248.417695	-383.182711	69.680021	329.317374	-465.737434	-168.919036	898.065814	-274.291231	-53.049263	79.244775	-474.354942	-53.111956	79.386866	-76.728455	
1002	5.0100	777.568037	1233.433615	-99.597344	823.489674	1250.392087	-388.643664	804.905317	1325.564970	-249.078798	728.042858	1178.262576	-257.969200	547.647415	1092.103707	2.893066	684.575446	936.337386	-84.917289	600.814995	1133.174366	-573.272422	691.584340	916.415616	-490.268431	221.487059	1276.031722	-376.004577	392.037971	1229.323488	-471.703066	322.853707	1270.359187	-200.097124	405.238329	1166.888655	-422.892120	355.451563	1199.135226	-213.627989	254.791039	1318.703948	-328.480014	281.617824	1307.773603	-410.433683	236.432087	1160.545759	-181.000374	317.511724	1143.975442	-511.658502	294.428773	1050.102333	-144.558452	350.448700	983.841623	-123.277701	366.827573	897.408293	-120.457433	384.224711	999.551175	-124.518691	439.396186	765.761170	-116.781597	365.362502	680.573685	-97.918323	356.245162	592.146367	-105.835298	306.889912	522.351402	-116.048098	389.185885	582.017769	-123.258206	266.603900	391.630054	-125.636577	198.055463	371.574452	-175.200303	480.558644	287.852638	-153.147323	373.408803	285.741931	-92.904312	0.000000	0.000000	-0.000000	378.319794	1012.332417	-493.510155	428.215554	949.863980	-464.177820	453.221827	965.164900	-442.706822	443.417851	861.224742	-453.773379	464.473039	722.840526	-407.234517	416.950925	724.374719	-306.824211	356.046880	661.582883	-453.956164	296.326463	598.528331	-450.522475	212.330671	571.151470	-464.613699	308.845825	575.651702	-421.248194	117.609980	499.329266	-472.379919	56.784556	541.108483	-438.593320	124.642746	258.922039	-383.245689	71.666851	339.802922	-465.881189	-171.724409	897.913574	-276.075298	-53.042038	79.236991	-474.348306	-53.077863	79.383496	-76.701845	
1003	5.0150	779.124191	1232.934864	-100.901279	823.189574	1252.251897	-390.533692	805.122593	1326.061376	-250.212573	728.992667	1178.432043	-259.606754	549.562720	1092.538970	4.294346	684.877871	936.274726	-84.674806	599.569039	1133.170944	-572.899472	690.997966	916.757243	-491.377157	220.896383	1274.619150	-373.124834	390.488071	1229.768597	-470.531052	323.998217	1267.179726	-198.104810	404.297274	1166.750858	-422.694051	356.618553	1195.972264	-212.468878	255.179645	1316.389436	-325.823096	280.603407	1306.853289	-407.430456	237.345861	1156.638559	-179.642863	316.613120	1144.028081	-510.713510	293.759892	1045.079871	-144.774585	348.474250	977.342779	-124.746315	362.824085	890.548981	-122.809509	382.574893	992.415707	-126.028782	434.311380	758.002872	-120.361288	361.990056	671.791587	-100.083445	353.113543	583.437388	-107.779465	304.668284	513.077721	-116.691337	385.746706	574.040129	-125.942693	264.944341	381.965503	-125.432809	196.190666	362.314837	-174.672552	478.328066	276.240836	-153.259114	371.269034	275.216551	-92.905881	0.000000	0.000000	-0.000000	379.906037	1012.039525	-494.220892	431.051710	950.870679	-464.483469	455.682659	966.847562	-443.115737	448.206122	862.607374	-453.635644	471.603169	725.499498	-407.059724	424.460069	726.760562	-306.555814	362.196613	666.423181	-453.801725	300.673123	604.902027	-450.101946	216.634329	579.363569	-464.898389	313.037919	581.361887	-421.328359	120.667310	509.331063	-472.164149	59.659954	551.431767	-438.707813	127.154903	269.187668	-383.230603	74.430515	350.386862	-466.135245	-172.519982	898.061992	-276.435347	-53.001159	79.245117	-474.329272	-53.070499	79.362134	-76.684649	
